<mxfile host="app.diagrams.net" agent="Mozilla/5.0 (Macintosh; Intel Mac OS X 10_15_7) AppleWebKit/537.36 (KHTML, like Gecko) Chrome/129.0.0.0 Safari/537.36" version="24.8.0">
  <diagram name="第 1 页" id="IS1YIhIyGcCp1zh6kRXE">
    <mxGraphModel dx="1442" dy="390" grid="1" gridSize="10" guides="1" tooltips="1" connect="1" arrows="1" fold="1" page="1" pageScale="1" pageWidth="827" pageHeight="1169" math="0" shadow="0">
      <root>
        <mxCell id="0" />
        <mxCell id="1" parent="0" />
        <mxCell id="eI0VBQEDJUcGqaeWiOvq-105" value="" style="rounded=1;whiteSpace=wrap;html=1;strokeColor=#000000;align=center;verticalAlign=middle;fontFamily=Helvetica;fontSize=12;resizable=1;fillColor=#ffffd9;shadow=0;glass=0;arcSize=4;" vertex="1" parent="1">
          <mxGeometry x="-480" y="90" width="380" height="400" as="geometry" />
        </mxCell>
        <mxCell id="eI0VBQEDJUcGqaeWiOvq-95" value="" style="endArrow=classic;html=1;rounded=0;exitX=0.5;exitY=0;exitDx=0;exitDy=0;entryX=0;entryY=0.5;entryDx=0;entryDy=0;edgeStyle=orthogonalEdgeStyle;" edge="1" parent="1" source="eI0VBQEDJUcGqaeWiOvq-76" target="eI0VBQEDJUcGqaeWiOvq-89">
          <mxGeometry relative="1" as="geometry">
            <mxPoint x="-220.03" y="295" as="sourcePoint" />
            <mxPoint x="-164.03" y="125" as="targetPoint" />
          </mxGeometry>
        </mxCell>
        <mxCell id="eI0VBQEDJUcGqaeWiOvq-96" value="e&lt;sub&gt;i2&lt;/sub&gt;" style="edgeLabel;resizable=0;html=1;;align=center;verticalAlign=middle;" connectable="0" vertex="1" parent="eI0VBQEDJUcGqaeWiOvq-95">
          <mxGeometry relative="1" as="geometry">
            <mxPoint y="86" as="offset" />
          </mxGeometry>
        </mxCell>
        <mxCell id="eI0VBQEDJUcGqaeWiOvq-91" value="" style="endArrow=classic;html=1;rounded=0;exitX=0.5;exitY=0;exitDx=0;exitDy=0;entryX=0;entryY=0.5;entryDx=0;entryDy=0;edgeStyle=orthogonalEdgeStyle;" edge="1" parent="1" source="eI0VBQEDJUcGqaeWiOvq-75" target="eI0VBQEDJUcGqaeWiOvq-90">
          <mxGeometry relative="1" as="geometry">
            <mxPoint x="-350.03" y="224.47000000000003" as="sourcePoint" />
            <mxPoint x="-307.03" y="99.47" as="targetPoint" />
          </mxGeometry>
        </mxCell>
        <mxCell id="eI0VBQEDJUcGqaeWiOvq-92" value="e&lt;sub&gt;i2&lt;/sub&gt;" style="edgeLabel;resizable=0;html=1;;align=center;verticalAlign=middle;" connectable="0" vertex="1" parent="eI0VBQEDJUcGqaeWiOvq-91">
          <mxGeometry relative="1" as="geometry">
            <mxPoint y="74" as="offset" />
          </mxGeometry>
        </mxCell>
        <mxCell id="eI0VBQEDJUcGqaeWiOvq-8" style="edgeStyle=orthogonalEdgeStyle;rounded=0;orthogonalLoop=1;jettySize=auto;html=1;exitX=0.5;exitY=0;exitDx=0;exitDy=0;entryX=0.5;entryY=1;entryDx=0;entryDy=0;" edge="1" parent="1" source="eI0VBQEDJUcGqaeWiOvq-1" target="eI0VBQEDJUcGqaeWiOvq-4">
          <mxGeometry relative="1" as="geometry" />
        </mxCell>
        <mxCell id="eI0VBQEDJUcGqaeWiOvq-1" value="MLP" style="rounded=1;whiteSpace=wrap;html=1;" vertex="1" parent="1">
          <mxGeometry x="200" y="490" width="60" height="30" as="geometry" />
        </mxCell>
        <mxCell id="eI0VBQEDJUcGqaeWiOvq-9" style="edgeStyle=orthogonalEdgeStyle;rounded=0;orthogonalLoop=1;jettySize=auto;html=1;exitX=0.5;exitY=0;exitDx=0;exitDy=0;entryX=0.5;entryY=1;entryDx=0;entryDy=0;" edge="1" parent="1" source="eI0VBQEDJUcGqaeWiOvq-4" target="eI0VBQEDJUcGqaeWiOvq-19">
          <mxGeometry relative="1" as="geometry">
            <mxPoint x="230" y="380" as="targetPoint" />
          </mxGeometry>
        </mxCell>
        <mxCell id="eI0VBQEDJUcGqaeWiOvq-50" style="edgeStyle=orthogonalEdgeStyle;rounded=0;orthogonalLoop=1;jettySize=auto;html=1;exitX=0.5;exitY=0;exitDx=0;exitDy=0;entryX=0.75;entryY=1;entryDx=0;entryDy=0;" edge="1" parent="1" source="eI0VBQEDJUcGqaeWiOvq-4" target="eI0VBQEDJUcGqaeWiOvq-36">
          <mxGeometry relative="1" as="geometry">
            <mxPoint x="60" y="280" as="targetPoint" />
            <Array as="points">
              <mxPoint x="230" y="400" />
              <mxPoint x="63" y="400" />
              <mxPoint x="63" y="265" />
            </Array>
          </mxGeometry>
        </mxCell>
        <mxCell id="eI0VBQEDJUcGqaeWiOvq-4" value="GRU" style="rounded=1;whiteSpace=wrap;html=1;" vertex="1" parent="1">
          <mxGeometry x="200" y="420" width="60" height="30" as="geometry" />
        </mxCell>
        <mxCell id="eI0VBQEDJUcGqaeWiOvq-7" value="" style="endArrow=classic;html=1;rounded=0;entryX=0.5;entryY=1;entryDx=0;entryDy=0;" edge="1" parent="1" source="eI0VBQEDJUcGqaeWiOvq-6" target="eI0VBQEDJUcGqaeWiOvq-1">
          <mxGeometry width="50" height="50" relative="1" as="geometry">
            <mxPoint x="230" y="600" as="sourcePoint" />
            <mxPoint x="280" y="550" as="targetPoint" />
            <Array as="points">
              <mxPoint x="230" y="540" />
            </Array>
          </mxGeometry>
        </mxCell>
        <mxCell id="eI0VBQEDJUcGqaeWiOvq-6" value="o&lt;sub&gt;i&lt;/sub&gt;&lt;sup&gt;t&lt;/sup&gt;,a&lt;sub&gt;i&lt;/sub&gt;&lt;sup&gt;t-1&lt;/sup&gt;,s&lt;sub&gt;i&lt;/sub&gt;&lt;sup&gt;t-1&lt;/sup&gt;" style="text;html=1;align=center;verticalAlign=middle;whiteSpace=wrap;rounded=0;" vertex="1" parent="1">
          <mxGeometry x="195" y="560" width="70" height="30" as="geometry" />
        </mxCell>
        <mxCell id="eI0VBQEDJUcGqaeWiOvq-22" style="edgeStyle=orthogonalEdgeStyle;rounded=0;orthogonalLoop=1;jettySize=auto;html=1;exitX=0.5;exitY=0;exitDx=0;exitDy=0;entryX=0.5;entryY=1;entryDx=0;entryDy=0;" edge="1" parent="1" source="eI0VBQEDJUcGqaeWiOvq-19">
          <mxGeometry relative="1" as="geometry">
            <mxPoint x="230" y="250" as="targetPoint" />
          </mxGeometry>
        </mxCell>
        <mxCell id="eI0VBQEDJUcGqaeWiOvq-19" value="MLP" style="rounded=1;whiteSpace=wrap;html=1;" vertex="1" parent="1">
          <mxGeometry x="200" y="330" width="60" height="30" as="geometry" />
        </mxCell>
        <mxCell id="eI0VBQEDJUcGqaeWiOvq-26" style="edgeStyle=orthogonalEdgeStyle;rounded=0;orthogonalLoop=1;jettySize=auto;html=1;exitX=0.5;exitY=0;exitDx=0;exitDy=0;" edge="1" parent="1" source="eI0VBQEDJUcGqaeWiOvq-23" target="eI0VBQEDJUcGqaeWiOvq-25">
          <mxGeometry relative="1" as="geometry" />
        </mxCell>
        <mxCell id="eI0VBQEDJUcGqaeWiOvq-23" value="Mixing Network" style="rounded=1;whiteSpace=wrap;html=1;" vertex="1" parent="1">
          <mxGeometry x="170" y="130" width="120" height="40" as="geometry" />
        </mxCell>
        <mxCell id="eI0VBQEDJUcGqaeWiOvq-25" value="Qtot(o,a)" style="rounded=1;whiteSpace=wrap;html=1;" vertex="1" parent="1">
          <mxGeometry x="185" y="50" width="90" height="30" as="geometry" />
        </mxCell>
        <mxCell id="eI0VBQEDJUcGqaeWiOvq-27" value="" style="endArrow=classic;html=1;rounded=0;entryX=0;entryY=0.5;entryDx=0;entryDy=0;" edge="1" parent="1" target="eI0VBQEDJUcGqaeWiOvq-4">
          <mxGeometry width="50" height="50" relative="1" as="geometry">
            <mxPoint x="140" y="434.71" as="sourcePoint" />
            <mxPoint x="200" y="435" as="targetPoint" />
          </mxGeometry>
        </mxCell>
        <mxCell id="eI0VBQEDJUcGqaeWiOvq-28" value="" style="endArrow=classic;html=1;rounded=0;exitX=1;exitY=0.5;exitDx=0;exitDy=0;" edge="1" parent="1" source="eI0VBQEDJUcGqaeWiOvq-4">
          <mxGeometry width="50" height="50" relative="1" as="geometry">
            <mxPoint x="275" y="434.71" as="sourcePoint" />
            <mxPoint x="320" y="435" as="targetPoint" />
          </mxGeometry>
        </mxCell>
        <mxCell id="eI0VBQEDJUcGqaeWiOvq-29" value="h&lt;sub&gt;i&lt;/sub&gt;&lt;sup&gt;t-1&lt;/sup&gt;" style="text;html=1;align=center;verticalAlign=middle;whiteSpace=wrap;rounded=0;" vertex="1" parent="1">
          <mxGeometry x="135" y="410" width="60" height="30" as="geometry" />
        </mxCell>
        <mxCell id="eI0VBQEDJUcGqaeWiOvq-63" style="edgeStyle=orthogonalEdgeStyle;rounded=0;orthogonalLoop=1;jettySize=auto;html=1;exitX=0.5;exitY=0;exitDx=0;exitDy=0;entryX=0.5;entryY=1;entryDx=0;entryDy=0;endArrow=classicThin;endFill=1;" edge="1" parent="1" source="eI0VBQEDJUcGqaeWiOvq-30" target="eI0VBQEDJUcGqaeWiOvq-57">
          <mxGeometry relative="1" as="geometry" />
        </mxCell>
        <mxCell id="eI0VBQEDJUcGqaeWiOvq-30" value="h&lt;sub&gt;i&lt;/sub&gt;" style="text;html=1;align=center;verticalAlign=middle;whiteSpace=wrap;rounded=0;" vertex="1" parent="1">
          <mxGeometry x="-441.75" y="505" width="16.5" height="20" as="geometry" />
        </mxCell>
        <mxCell id="eI0VBQEDJUcGqaeWiOvq-47" style="edgeStyle=orthogonalEdgeStyle;rounded=0;orthogonalLoop=1;jettySize=auto;html=1;exitX=1;exitY=0.5;exitDx=0;exitDy=0;" edge="1" parent="1" source="eI0VBQEDJUcGqaeWiOvq-31">
          <mxGeometry relative="1" as="geometry">
            <mxPoint x="500" y="465" as="targetPoint" />
          </mxGeometry>
        </mxCell>
        <mxCell id="eI0VBQEDJUcGqaeWiOvq-54" style="edgeStyle=orthogonalEdgeStyle;rounded=0;orthogonalLoop=1;jettySize=auto;html=1;exitX=0.5;exitY=0;exitDx=0;exitDy=0;" edge="1" parent="1" source="eI0VBQEDJUcGqaeWiOvq-31">
          <mxGeometry relative="1" as="geometry">
            <mxPoint x="395.1428571428571" y="400" as="targetPoint" />
          </mxGeometry>
        </mxCell>
        <mxCell id="eI0VBQEDJUcGqaeWiOvq-31" value="Message&lt;br&gt;Sending&lt;br&gt;Module" style="rounded=1;whiteSpace=wrap;html=1;" vertex="1" parent="1">
          <mxGeometry x="350" y="440" width="90" height="50" as="geometry" />
        </mxCell>
        <mxCell id="eI0VBQEDJUcGqaeWiOvq-35" value="" style="endArrow=classic;html=1;rounded=0;exitX=0.5;exitY=0;exitDx=0;exitDy=0;entryX=0.25;entryY=1;entryDx=0;entryDy=0;" edge="1" parent="1" source="eI0VBQEDJUcGqaeWiOvq-6" target="eI0VBQEDJUcGqaeWiOvq-31">
          <mxGeometry width="50" height="50" relative="1" as="geometry">
            <mxPoint x="275" y="550" as="sourcePoint" />
            <mxPoint x="325" y="500" as="targetPoint" />
            <Array as="points">
              <mxPoint x="230" y="540" />
              <mxPoint x="373" y="540" />
            </Array>
          </mxGeometry>
        </mxCell>
        <mxCell id="eI0VBQEDJUcGqaeWiOvq-37" style="edgeStyle=orthogonalEdgeStyle;rounded=0;orthogonalLoop=1;jettySize=auto;html=1;exitX=1;exitY=0.5;exitDx=0;exitDy=0;entryX=0;entryY=0.5;entryDx=0;entryDy=0;" edge="1" parent="1" source="eI0VBQEDJUcGqaeWiOvq-36" target="eI0VBQEDJUcGqaeWiOvq-40">
          <mxGeometry relative="1" as="geometry">
            <mxPoint x="185.00000000001023" y="240" as="targetPoint" />
          </mxGeometry>
        </mxCell>
        <mxCell id="eI0VBQEDJUcGqaeWiOvq-36" value="Message&lt;br&gt;Receving&lt;br&gt;Module" style="rounded=1;whiteSpace=wrap;html=1;fillColor=#ffffd9;" vertex="1" parent="1">
          <mxGeometry x="-5" y="215" width="90" height="50" as="geometry" />
        </mxCell>
        <mxCell id="eI0VBQEDJUcGqaeWiOvq-38" value="Q&lt;sup&gt;i&lt;/sup&gt;&lt;sub&gt;c&lt;/sub&gt;" style="text;html=1;align=center;verticalAlign=middle;whiteSpace=wrap;rounded=0;" vertex="1" parent="1">
          <mxGeometry x="90" y="215" width="60" height="30" as="geometry" />
        </mxCell>
        <mxCell id="eI0VBQEDJUcGqaeWiOvq-39" value="h&lt;sub&gt;i&lt;/sub&gt;&lt;sup&gt;t&lt;/sup&gt;" style="text;html=1;align=center;verticalAlign=middle;whiteSpace=wrap;rounded=0;" vertex="1" parent="1">
          <mxGeometry x="70" y="275" width="20" height="25" as="geometry" />
        </mxCell>
        <mxCell id="eI0VBQEDJUcGqaeWiOvq-42" style="edgeStyle=orthogonalEdgeStyle;rounded=0;orthogonalLoop=1;jettySize=auto;html=1;exitX=0.5;exitY=0;exitDx=0;exitDy=0;entryX=0.5;entryY=1;entryDx=0;entryDy=0;" edge="1" parent="1" source="eI0VBQEDJUcGqaeWiOvq-40" target="eI0VBQEDJUcGqaeWiOvq-23">
          <mxGeometry relative="1" as="geometry" />
        </mxCell>
        <mxCell id="eI0VBQEDJUcGqaeWiOvq-40" value="" style="shape=orEllipse;perimeter=ellipsePerimeter;whiteSpace=wrap;html=1;backgroundOutline=1;" vertex="1" parent="1">
          <mxGeometry x="220" y="230" width="20" height="20" as="geometry" />
        </mxCell>
        <mxCell id="eI0VBQEDJUcGqaeWiOvq-41" value="Q&lt;sup&gt;i&lt;/sup&gt;&lt;sub&gt;l&lt;/sub&gt;" style="text;html=1;align=center;verticalAlign=middle;whiteSpace=wrap;rounded=0;" vertex="1" parent="1">
          <mxGeometry x="190" y="260" width="60" height="30" as="geometry" />
        </mxCell>
        <mxCell id="eI0VBQEDJUcGqaeWiOvq-44" value="Q&lt;sup&gt;i&lt;/sup&gt;" style="text;html=1;align=center;verticalAlign=middle;whiteSpace=wrap;rounded=0;" vertex="1" parent="1">
          <mxGeometry x="190" y="180" width="60" height="30" as="geometry" />
        </mxCell>
        <mxCell id="eI0VBQEDJUcGqaeWiOvq-45" value="" style="endArrow=classic;html=1;rounded=0;entryX=0.75;entryY=1;entryDx=0;entryDy=0;" edge="1" parent="1" target="eI0VBQEDJUcGqaeWiOvq-31">
          <mxGeometry width="50" height="50" relative="1" as="geometry">
            <mxPoint x="418" y="560" as="sourcePoint" />
            <mxPoint x="420" y="550" as="targetPoint" />
          </mxGeometry>
        </mxCell>
        <mxCell id="eI0VBQEDJUcGqaeWiOvq-46" value="z&lt;sub&gt;·i&lt;/sub&gt;" style="text;html=1;align=center;verticalAlign=middle;whiteSpace=wrap;rounded=0;" vertex="1" parent="1">
          <mxGeometry x="399" y="560" width="41" height="20" as="geometry" />
        </mxCell>
        <mxCell id="eI0VBQEDJUcGqaeWiOvq-48" value="s&lt;sub&gt;i·&lt;/sub&gt;" style="text;html=1;align=center;verticalAlign=middle;whiteSpace=wrap;rounded=0;" vertex="1" parent="1">
          <mxGeometry x="450" y="440" width="60" height="30" as="geometry" />
        </mxCell>
        <mxCell id="eI0VBQEDJUcGqaeWiOvq-49" value="Inference" style="text;html=1;align=center;verticalAlign=middle;whiteSpace=wrap;rounded=0;" vertex="1" parent="1">
          <mxGeometry x="300" y="520" width="50" height="20" as="geometry" />
        </mxCell>
        <mxCell id="eI0VBQEDJUcGqaeWiOvq-51" value="" style="endArrow=classic;html=1;rounded=0;entryX=0.25;entryY=1;entryDx=0;entryDy=0;" edge="1" parent="1" target="eI0VBQEDJUcGqaeWiOvq-36">
          <mxGeometry width="50" height="50" relative="1" as="geometry">
            <mxPoint x="18" y="300" as="sourcePoint" />
            <mxPoint x="45" y="280" as="targetPoint" />
          </mxGeometry>
        </mxCell>
        <mxCell id="eI0VBQEDJUcGqaeWiOvq-52" value="m&lt;sub&gt;·i&lt;/sub&gt;" style="text;html=1;align=center;verticalAlign=middle;whiteSpace=wrap;rounded=0;" vertex="1" parent="1">
          <mxGeometry x="-20" y="280" width="40" height="20" as="geometry" />
        </mxCell>
        <mxCell id="eI0VBQEDJUcGqaeWiOvq-55" value="m&lt;sub&gt;i·&lt;/sub&gt;" style="text;html=1;align=center;verticalAlign=middle;whiteSpace=wrap;rounded=0;" vertex="1" parent="1">
          <mxGeometry x="380" y="410" width="50" height="30" as="geometry" />
        </mxCell>
        <mxCell id="eI0VBQEDJUcGqaeWiOvq-77" style="edgeStyle=orthogonalEdgeStyle;rounded=0;orthogonalLoop=1;jettySize=auto;html=1;exitX=0.5;exitY=0;exitDx=0;exitDy=0;entryX=0.5;entryY=1;entryDx=0;entryDy=0;" edge="1" parent="1" source="eI0VBQEDJUcGqaeWiOvq-57" target="eI0VBQEDJUcGqaeWiOvq-74">
          <mxGeometry relative="1" as="geometry" />
        </mxCell>
        <mxCell id="eI0VBQEDJUcGqaeWiOvq-57" value="Wh&lt;sub&gt;i&lt;/sub&gt;||Wm&lt;sub&gt;1i&lt;/sub&gt;" style="rounded=1;whiteSpace=wrap;html=1;" vertex="1" parent="1">
          <mxGeometry x="-470" y="415" width="73" height="30" as="geometry" />
        </mxCell>
        <mxCell id="eI0VBQEDJUcGqaeWiOvq-78" style="edgeStyle=orthogonalEdgeStyle;rounded=0;orthogonalLoop=1;jettySize=auto;html=1;exitX=0.5;exitY=0;exitDx=0;exitDy=0;entryX=0.5;entryY=1;entryDx=0;entryDy=0;" edge="1" parent="1" source="eI0VBQEDJUcGqaeWiOvq-58" target="eI0VBQEDJUcGqaeWiOvq-75">
          <mxGeometry relative="1" as="geometry" />
        </mxCell>
        <mxCell id="eI0VBQEDJUcGqaeWiOvq-58" value="Wh&lt;sub&gt;i&lt;/sub&gt;||Wm&lt;sub&gt;2i&lt;/sub&gt;" style="rounded=1;whiteSpace=wrap;html=1;" vertex="1" parent="1">
          <mxGeometry x="-363" y="415" width="73" height="30" as="geometry" />
        </mxCell>
        <mxCell id="eI0VBQEDJUcGqaeWiOvq-79" style="edgeStyle=orthogonalEdgeStyle;rounded=0;orthogonalLoop=1;jettySize=auto;html=1;exitX=0.5;exitY=0;exitDx=0;exitDy=0;entryX=0.5;entryY=1;entryDx=0;entryDy=0;" edge="1" parent="1" source="eI0VBQEDJUcGqaeWiOvq-59" target="eI0VBQEDJUcGqaeWiOvq-76">
          <mxGeometry relative="1" as="geometry" />
        </mxCell>
        <mxCell id="eI0VBQEDJUcGqaeWiOvq-59" value="Wh&lt;sub&gt;i&lt;/sub&gt;||Wm&lt;sub&gt;ni&lt;/sub&gt;" style="rounded=1;whiteSpace=wrap;html=1;" vertex="1" parent="1">
          <mxGeometry x="-220" y="415" width="73" height="30" as="geometry" />
        </mxCell>
        <mxCell id="eI0VBQEDJUcGqaeWiOvq-60" value="···" style="text;html=1;align=center;verticalAlign=middle;whiteSpace=wrap;rounded=0;" vertex="1" parent="1">
          <mxGeometry x="-280" y="420" width="60" height="20" as="geometry" />
        </mxCell>
        <mxCell id="eI0VBQEDJUcGqaeWiOvq-64" style="rounded=0;orthogonalLoop=1;jettySize=auto;html=1;exitX=0.5;exitY=0;exitDx=0;exitDy=0;entryX=0.5;entryY=1;entryDx=0;entryDy=0;endArrow=classicThin;endFill=1;" edge="1" parent="1" source="eI0VBQEDJUcGqaeWiOvq-61" target="eI0VBQEDJUcGqaeWiOvq-57">
          <mxGeometry relative="1" as="geometry" />
        </mxCell>
        <mxCell id="eI0VBQEDJUcGqaeWiOvq-61" value="m&lt;sub&gt;1i&lt;/sub&gt;" style="text;html=1;align=center;verticalAlign=middle;whiteSpace=wrap;rounded=0;" vertex="1" parent="1">
          <mxGeometry x="-390" y="505" width="20" height="20" as="geometry" />
        </mxCell>
        <mxCell id="eI0VBQEDJUcGqaeWiOvq-65" value="m&lt;sub&gt;2i&lt;/sub&gt;" style="text;html=1;align=center;verticalAlign=middle;whiteSpace=wrap;rounded=0;" vertex="1" parent="1">
          <mxGeometry x="-270" y="505" width="20" height="20" as="geometry" />
        </mxCell>
        <mxCell id="eI0VBQEDJUcGqaeWiOvq-66" value="···" style="text;html=1;align=center;verticalAlign=middle;whiteSpace=wrap;rounded=0;" vertex="1" parent="1">
          <mxGeometry x="-223.5" y="505" width="60" height="20" as="geometry" />
        </mxCell>
        <mxCell id="eI0VBQEDJUcGqaeWiOvq-99" style="edgeStyle=orthogonalEdgeStyle;rounded=0;orthogonalLoop=1;jettySize=auto;html=1;exitX=0.5;exitY=0;exitDx=0;exitDy=0;entryX=0.5;entryY=1;entryDx=0;entryDy=0;fontFamily=Helvetica;fontSize=12;fontColor=default;resizable=1;" edge="1" parent="1" source="eI0VBQEDJUcGqaeWiOvq-67" target="eI0VBQEDJUcGqaeWiOvq-89">
          <mxGeometry relative="1" as="geometry" />
        </mxCell>
        <mxCell id="eI0VBQEDJUcGqaeWiOvq-67" value="m&lt;sub&gt;ni&lt;/sub&gt;" style="text;html=1;align=center;verticalAlign=middle;whiteSpace=wrap;rounded=0;" vertex="1" parent="1">
          <mxGeometry x="-130" y="505" width="20" height="20" as="geometry" />
        </mxCell>
        <mxCell id="eI0VBQEDJUcGqaeWiOvq-70" style="rounded=0;orthogonalLoop=1;jettySize=auto;html=1;exitX=0.5;exitY=0;exitDx=0;exitDy=0;entryX=0.5;entryY=1;entryDx=0;entryDy=0;endArrow=classicThin;endFill=1;" edge="1" parent="1" source="eI0VBQEDJUcGqaeWiOvq-30" target="eI0VBQEDJUcGqaeWiOvq-58">
          <mxGeometry relative="1" as="geometry">
            <mxPoint x="-350" y="500" as="sourcePoint" />
            <mxPoint x="-350" y="465" as="targetPoint" />
          </mxGeometry>
        </mxCell>
        <mxCell id="eI0VBQEDJUcGqaeWiOvq-71" style="rounded=0;orthogonalLoop=1;jettySize=auto;html=1;exitX=0.5;exitY=0;exitDx=0;exitDy=0;entryX=0.5;entryY=1;entryDx=0;entryDy=0;endArrow=classicThin;endFill=1;" edge="1" parent="1" source="eI0VBQEDJUcGqaeWiOvq-30" target="eI0VBQEDJUcGqaeWiOvq-59">
          <mxGeometry relative="1" as="geometry">
            <mxPoint x="-423" y="490" as="sourcePoint" />
            <mxPoint x="-316" y="455" as="targetPoint" />
          </mxGeometry>
        </mxCell>
        <mxCell id="eI0VBQEDJUcGqaeWiOvq-72" style="rounded=0;orthogonalLoop=1;jettySize=auto;html=1;entryX=0.5;entryY=1;entryDx=0;entryDy=0;endArrow=classicThin;endFill=1;exitX=0.5;exitY=0;exitDx=0;exitDy=0;" edge="1" parent="1" source="eI0VBQEDJUcGqaeWiOvq-67" target="eI0VBQEDJUcGqaeWiOvq-59">
          <mxGeometry relative="1" as="geometry">
            <mxPoint x="-85" y="590" as="sourcePoint" />
            <mxPoint x="-338.5" y="500" as="targetPoint" />
          </mxGeometry>
        </mxCell>
        <mxCell id="eI0VBQEDJUcGqaeWiOvq-73" style="rounded=0;orthogonalLoop=1;jettySize=auto;html=1;exitX=0.5;exitY=0;exitDx=0;exitDy=0;entryX=0.5;entryY=1;entryDx=0;entryDy=0;endArrow=classicThin;endFill=1;" edge="1" parent="1" source="eI0VBQEDJUcGqaeWiOvq-65" target="eI0VBQEDJUcGqaeWiOvq-58">
          <mxGeometry relative="1" as="geometry">
            <mxPoint x="-277" y="525" as="sourcePoint" />
            <mxPoint x="-330" y="490" as="targetPoint" />
          </mxGeometry>
        </mxCell>
        <mxCell id="eI0VBQEDJUcGqaeWiOvq-74" value="MLP" style="rounded=1;whiteSpace=wrap;html=1;" vertex="1" parent="1">
          <mxGeometry x="-453.5" y="345" width="40" height="20" as="geometry" />
        </mxCell>
        <mxCell id="eI0VBQEDJUcGqaeWiOvq-75" value="MLP" style="rounded=1;whiteSpace=wrap;html=1;" vertex="1" parent="1">
          <mxGeometry x="-346.5" y="345" width="40" height="20" as="geometry" />
        </mxCell>
        <mxCell id="eI0VBQEDJUcGqaeWiOvq-76" value="MLP" style="rounded=1;whiteSpace=wrap;html=1;" vertex="1" parent="1">
          <mxGeometry x="-203.5" y="345" width="40" height="20" as="geometry" />
        </mxCell>
        <mxCell id="eI0VBQEDJUcGqaeWiOvq-83" value="" style="endArrow=classic;html=1;rounded=0;exitX=0.5;exitY=0;exitDx=0;exitDy=0;entryX=0;entryY=0.5;entryDx=0;entryDy=0;edgeStyle=orthogonalEdgeStyle;" edge="1" parent="1" source="eI0VBQEDJUcGqaeWiOvq-74" target="eI0VBQEDJUcGqaeWiOvq-87">
          <mxGeometry relative="1" as="geometry">
            <mxPoint x="-520" y="320.42" as="sourcePoint" />
            <mxPoint x="-479.79999999999995" y="195.00000000000006" as="targetPoint" />
          </mxGeometry>
        </mxCell>
        <mxCell id="eI0VBQEDJUcGqaeWiOvq-84" value="e&lt;sub&gt;i1&lt;/sub&gt;" style="edgeLabel;resizable=0;html=1;;align=center;verticalAlign=middle;" connectable="0" vertex="1" parent="eI0VBQEDJUcGqaeWiOvq-83">
          <mxGeometry relative="1" as="geometry">
            <mxPoint y="44" as="offset" />
          </mxGeometry>
        </mxCell>
        <mxCell id="eI0VBQEDJUcGqaeWiOvq-81" value="Softmax" style="rounded=1;whiteSpace=wrap;html=1;" vertex="1" parent="1">
          <mxGeometry x="-470" y="265" width="330" height="20" as="geometry" />
        </mxCell>
        <mxCell id="eI0VBQEDJUcGqaeWiOvq-108" style="edgeStyle=orthogonalEdgeStyle;rounded=0;orthogonalLoop=1;jettySize=auto;html=1;exitX=0.5;exitY=0;exitDx=0;exitDy=0;fontFamily=Helvetica;fontSize=12;fontColor=default;resizable=1;entryX=0.5;entryY=1;entryDx=0;entryDy=0;" edge="1" parent="1" target="eI0VBQEDJUcGqaeWiOvq-107">
          <mxGeometry relative="1" as="geometry">
            <mxPoint x="-380" y="213" as="sourcePoint" />
            <mxPoint x="-260" y="73" as="targetPoint" />
            <Array as="points">
              <mxPoint x="-380" y="103" />
              <mxPoint x="-260" y="103" />
            </Array>
          </mxGeometry>
        </mxCell>
        <mxCell id="eI0VBQEDJUcGqaeWiOvq-87" value="·" style="rhombus;whiteSpace=wrap;html=1;movable=1;resizable=1;rotatable=1;deletable=1;editable=1;locked=0;connectable=1;container=0;" vertex="1" parent="1">
          <mxGeometry x="-390" y="210" width="20" height="20" as="geometry">
            <mxRectangle x="-310" y="265" width="40" height="30" as="alternateBounds" />
          </mxGeometry>
        </mxCell>
        <mxCell id="eI0VBQEDJUcGqaeWiOvq-110" style="edgeStyle=orthogonalEdgeStyle;rounded=0;orthogonalLoop=1;jettySize=auto;html=1;exitX=0.5;exitY=0;exitDx=0;exitDy=0;entryX=0.5;entryY=1;entryDx=0;entryDy=0;fontFamily=Helvetica;fontSize=12;fontColor=default;resizable=1;" edge="1" parent="1" source="eI0VBQEDJUcGqaeWiOvq-89" target="eI0VBQEDJUcGqaeWiOvq-107">
          <mxGeometry relative="1" as="geometry" />
        </mxCell>
        <mxCell id="eI0VBQEDJUcGqaeWiOvq-89" value="·" style="rhombus;whiteSpace=wrap;html=1;movable=1;resizable=1;rotatable=1;deletable=1;editable=1;locked=0;connectable=1;container=0;" vertex="1" parent="1">
          <mxGeometry x="-130" y="135" width="20" height="20" as="geometry">
            <mxRectangle x="-310" y="265" width="40" height="30" as="alternateBounds" />
          </mxGeometry>
        </mxCell>
        <mxCell id="eI0VBQEDJUcGqaeWiOvq-109" style="edgeStyle=orthogonalEdgeStyle;rounded=0;orthogonalLoop=1;jettySize=auto;html=1;exitX=0.5;exitY=0;exitDx=0;exitDy=0;entryX=0.5;entryY=1;entryDx=0;entryDy=0;fontFamily=Helvetica;fontSize=12;fontColor=default;resizable=1;" edge="1" parent="1" source="eI0VBQEDJUcGqaeWiOvq-90" target="eI0VBQEDJUcGqaeWiOvq-107">
          <mxGeometry relative="1" as="geometry" />
        </mxCell>
        <mxCell id="eI0VBQEDJUcGqaeWiOvq-90" value="·" style="rhombus;whiteSpace=wrap;html=1;movable=1;resizable=1;rotatable=1;deletable=1;editable=1;locked=0;connectable=1;container=0;" vertex="1" parent="1">
          <mxGeometry x="-270" y="165" width="20" height="20" as="geometry">
            <mxRectangle x="-310" y="265" width="40" height="30" as="alternateBounds" />
          </mxGeometry>
        </mxCell>
        <mxCell id="eI0VBQEDJUcGqaeWiOvq-88" style="edgeStyle=orthogonalEdgeStyle;rounded=0;orthogonalLoop=1;jettySize=auto;html=1;exitX=0.5;exitY=0;exitDx=0;exitDy=0;entryX=0.5;entryY=1;entryDx=0;entryDy=0;fontFamily=Helvetica;fontSize=12;fontColor=default;resizable=1;" edge="1" parent="1" source="eI0VBQEDJUcGqaeWiOvq-61" target="eI0VBQEDJUcGqaeWiOvq-87">
          <mxGeometry relative="1" as="geometry" />
        </mxCell>
        <mxCell id="eI0VBQEDJUcGqaeWiOvq-93" style="edgeStyle=orthogonalEdgeStyle;rounded=0;orthogonalLoop=1;jettySize=auto;html=1;exitX=0.5;exitY=0;exitDx=0;exitDy=0;fontFamily=Helvetica;fontSize=12;fontColor=default;resizable=1;entryX=0.5;entryY=1;entryDx=0;entryDy=0;" edge="1" parent="1" source="eI0VBQEDJUcGqaeWiOvq-65" target="eI0VBQEDJUcGqaeWiOvq-90">
          <mxGeometry relative="1" as="geometry">
            <mxPoint x="-259.7647058823529" y="225" as="targetPoint" />
          </mxGeometry>
        </mxCell>
        <mxCell id="eI0VBQEDJUcGqaeWiOvq-97" value="···" style="text;html=1;align=center;verticalAlign=middle;whiteSpace=wrap;rounded=0;" vertex="1" parent="1">
          <mxGeometry x="-263.5" y="295" width="60" height="20" as="geometry" />
        </mxCell>
        <mxCell id="eI0VBQEDJUcGqaeWiOvq-100" value="h&lt;sub&gt;i&lt;/sub&gt;&lt;sup&gt;t&lt;/sup&gt;" style="text;html=1;align=center;verticalAlign=middle;whiteSpace=wrap;rounded=0;" vertex="1" parent="1">
          <mxGeometry x="280" y="412.5" width="20" height="25" as="geometry" />
        </mxCell>
        <mxCell id="eI0VBQEDJUcGqaeWiOvq-107" value="Q&lt;sup&gt;i&lt;/sup&gt;&lt;sub&gt;c&lt;/sub&gt;" style="text;html=1;align=center;verticalAlign=middle;whiteSpace=wrap;rounded=0;" vertex="1" parent="1">
          <mxGeometry x="-281.75" y="50" width="43.5" height="20" as="geometry" />
        </mxCell>
      </root>
    </mxGraphModel>
  </diagram>
</mxfile>
